<svg width="22" height="22" viewBox="0 0 22 22" fill="none" xmlns="http://www.w3.org/2000/svg">
<path d="M15.5834 2.74999C15.8241 2.50924 16.1099 2.31826 16.4245 2.18796C16.7391 2.05766 17.0762 1.9906 17.4167 1.9906C17.7572 1.9906 18.0943 2.05766 18.4089 2.18796C18.7235 2.31826 19.0093 2.50924 19.25 2.74999C19.4908 2.99075 19.6818 3.27657 19.8121 3.59113C19.9424 3.9057 20.0094 4.24284 20.0094 4.58333C20.0094 4.92381 19.9424 5.26095 19.8121 5.57552C19.6818 5.89008 19.4908 6.1759 19.25 6.41666L6.87504 18.7917L1.83337 20.1667L3.20837 15.125L15.5834 2.74999Z" stroke="#BDBDBD" stroke-width="1.16667" stroke-linecap="round" stroke-linejoin="round"/>
</svg>
