<svg width="512" height="512" viewBox="0 0 512 512" fill="none" xmlns="http://www.w3.org/2000/svg">
<path d="M226.398 86.3984C136.398 86.3984 63.2031 160.402 63.2031 251.203C63.2031 342.402 136.398 416 226.398 416C267.598 416 305.199 400.398 334 374.797L343.203 384L334.797 392.797C329.996 397.598 329.996 405.199 334.797 410L406.797 482.797C409.195 485.195 412.004 486.398 415.203 486.398C418.402 486.398 421.602 485.195 423.602 482.797L455.602 450.398C460 445.598 460.004 438 455.203 433.602L383.203 360.797C380.805 358.398 377.996 357.203 374.797 357.203C371.598 357.203 368.398 358.398 366.398 360.797L358 369.602L348.797 360C373.996 330.801 389.602 292.805 389.602 251.203C389.602 160.402 316.398 86.3984 226.398 86.3984ZM226.398 110.797C303.199 110.797 365.602 174 365.602 251.602C365.602 329.203 303.199 392 226.398 392C149.598 392 87.2031 329.203 87.2031 251.602C87.2031 174 149.598 110.797 226.398 110.797ZM226.797 160.797C188.797 160.797 154.801 185.203 142 221.203C140 226.402 142.797 232.797 148.398 234.398C149.598 234.797 150.801 235.203 152 235.203C156.398 235.203 160.398 232.398 162 228C171.602 200.398 197.996 181.602 226.797 181.602C232.398 181.602 237.203 176.805 237.203 171.203C237.203 165.602 232.398 160.797 226.797 160.797ZM150.797 259.602C145.195 259.602 140.398 264 140.398 270V271.602C140.797 277.203 145.203 282 151.203 282C156.805 282 161.602 277.203 161.602 271.602V270.398C161.602 264.398 157.203 259.602 151.203 259.602H150.797ZM375.203 386.398L430.398 442.398L415.203 457.602L360 401.602L375.203 386.398Z" fill="#28EEB2"/>
</svg>
